<?xml version="1.0" encoding="utf-8"?>
<!-- Generator: Adobe Illustrator 24.0.2, SVG Export Plug-In . SVG Version: 6.00 Build 0)  -->
<svg version="1.0" id="Ebene_1" xmlns="http://www.w3.org/2000/svg" xmlns:xlink="http://www.w3.org/1999/xlink" x="0px" y="0px"
	 viewBox="0 0 595.28 841.89" style="enable-background:new 0 0 595.28 841.89;" xml:space="preserve">
<style type="text/css">
	.st0{fill:#E52421;}
	.st1{fill:none;stroke:#FFFFFF;stroke-width:8;stroke-linejoin:round;stroke-miterlimit:10;}
	.st2{fill:none;stroke:#FFFFFF;stroke-width:8;stroke-miterlimit:10;}
	.st3{fill:none;stroke:#FFFFFF;stroke-width:8;stroke-linejoin:bevel;stroke-miterlimit:10;}
	.st4{fill:#FFFFFF;}
	.st5{font-family:'FrutigerLTPro-Black';}
	.st6{font-size:36px;}
</style>
<path class="st0" d="M498.6,633.58H97.4c-6.6,0-12-5.4-12-12v-401.2c0-6.6,5.4-12,12-12h401.2c6.6,0,12,5.4,12,12v401.2
	C510.6,628.18,505.2,633.58,498.6,633.58z"/>
<line class="st1" x1="155" y1="351.81" x2="440" y2="351.81"/>
<g>
	<polyline class="st2" points="268,351.36 295.05,279 299.17,279 325.7,351.41 	"/>
	<polyline class="st3" points="323.7,346.41 285.59,306.55 308,306.55 270.15,347.41 	"/>
</g>
<g>
	<path class="st1" d="M296.91,321.06c0,0,0.08,23.08,0.17,51.29c0.09,28.21,0.12,53.85,0.05,56.97c-0.06,3.12,0.24,9.47,0.67,14.11
		c0.43,4.64,1.66,11.73,2.74,15.76c1.08,4.03,4.4,10.36,7.38,14.08c2.98,3.72,7.98,8.3,11.11,10.19c3.13,1.89,8.85,4.27,12.72,5.3
		c3.86,1.03,12.25,2.18,18.65,2.55c6.39,0.38,13.65,0.69,16.12,0.69c2.47,0,4.49,0,4.49,0"/>
</g>
<text transform="matrix(1 0 0 1 163.6655 558)" class="st4 st5 st6">swissforages.ch</text>
</svg>
