<?xml version="1.0" encoding="utf-8"?>
<!-- Generator: Adobe Illustrator 24.0.2, SVG Export Plug-In . SVG Version: 6.00 Build 0)  -->
<svg version="1.0" id="Ebene_1" xmlns="http://www.w3.org/2000/svg" xmlns:xlink="http://www.w3.org/1999/xlink" x="0px" y="0px"
	 viewBox="0 0 595.28 841.89" style="enable-background:new 0 0 595.28 841.89;" xml:space="preserve">
<style type="text/css">
	.st0{fill:#E52421;}
	.st1{fill:none;stroke:#FFFFFF;stroke-width:8;stroke-linejoin:round;stroke-miterlimit:10;}
	.st2{fill:none;stroke:#FFFFFF;stroke-width:8;stroke-miterlimit:10;}
	.st3{fill:none;stroke:#FFFFFF;stroke-width:8;stroke-linejoin:bevel;stroke-miterlimit:10;}
</style>
<path class="st0" d="M420.33,480.67h-207c-6.6,0-12-5.4-12-12v-207c0-6.6,5.4-12,12-12h207c6.6,0,12,5.4,12,12v207
	C432.33,475.27,426.93,480.67,420.33,480.67z"/>
<line class="st1" x1="247" y1="354.81" x2="376.33" y2="354.81"/>
<g>
	<polyline class="st2" points="285,354.36 312.05,282 316.17,282 342.7,354.41 	"/>
	<polyline class="st3" points="340.7,349.41 302.59,309.55 325,309.55 287.15,350.41 	"/>
</g>
<g>
	<path class="st1" d="M313.91,324.06c0,0,0.08,16.87,0.17,37.49c0.09,20.62,0.12,39.36,0.05,41.64c-0.06,2.28,0.24,6.92,0.67,10.31
		c0.43,3.39,1.66,8.57,2.74,11.52c1.08,2.94,4.4,7.57,7.38,10.29c2.98,2.72,7.98,6.07,11.11,7.45c3.13,1.38,8.85,3.12,12.72,3.87
		c3.86,0.75,9.78,1.59,13.15,1.87c3.37,0.28,8.15,0.5,10.62,0.5c2.47,0,4.49,0,4.49,0"/>
</g>
</svg>
